<svg width="32" height="32" viewBox="0 0 32 32" fill="none" xmlns="http://www.w3.org/2000/svg">
<rect x="12" y="4" width="8" height="2" fill="#232323"/>
<rect x="12" y="6" width="2" height="2" fill="#232323"/>
<rect x="18" y="6" width="2" height="2" fill="#232323"/>
<rect x="12" y="8" width="2" height="2" fill="#232323"/>
<rect x="18" y="8" width="8" height="2" fill="#232323"/>
<rect x="6" y="10" width="8" height="2" fill="#232323"/>
<rect x="18" y="10" width="2" height="2" fill="#232323"/>
<rect x="24" y="10" width="2" height="2" fill="#232323"/>
<rect x="6" y="12" width="2" height="2" fill="#232323"/>
<rect x="12" y="12" width="2" height="2" fill="#232323"/>
<rect x="18" y="12" width="2" height="2" fill="#232323"/>
<rect x="24" y="12" width="2" height="2" fill="#232323"/>
<rect x="6" y="14" width="2" height="2" fill="#232323"/>
<rect x="12" y="14" width="2" height="2" fill="#232323"/>
<rect x="18" y="14" width="2" height="2" fill="#232323"/>
<rect x="24" y="14" width="2" height="2" fill="#232323"/>
<rect x="6" y="16" width="2" height="2" fill="#232323"/>
<rect x="12" y="16" width="2" height="2" fill="#232323"/>
<rect x="18" y="16" width="8" height="2" fill="#232323"/>
<rect x="6" y="18" width="8" height="2" fill="#232323"/>
<rect x="18" y="18" width="2" height="2" fill="#232323"/>
<rect x="12" y="20" width="2" height="2" fill="#232323"/>
<rect x="18" y="20" width="2" height="2" fill="#232323"/>
<rect x="12" y="22" width="2" height="2" fill="#232323"/>
<rect x="18" y="22" width="2" height="2" fill="#232323"/>
<rect x="8" y="24" width="16" height="2" fill="#232323"/>
<rect x="8" y="26" width="2" height="2" fill="#232323"/>
<rect x="22" y="26" width="2" height="2" fill="#232323"/>
<rect x="8" y="28" width="16" height="2" fill="#232323"/>
</svg>
