<svg width="32" height="32" viewBox="0 0 32 32" fill="none" xmlns="http://www.w3.org/2000/svg">
<rect x="12" y="4" width="2" height="2" fill="#232323"/>
<rect x="18" y="4" width="2" height="2" fill="#232323"/>
<rect x="12" y="6" width="2" height="2" fill="#232323"/>
<rect x="18" y="6" width="2" height="2" fill="#232323"/>
<rect x="8" y="12" width="14" height="2" fill="#232323"/>
<rect x="8" y="14" width="2" height="2" fill="#232323"/>
<rect x="20" y="14" width="2" height="2" fill="#232323"/>
<rect x="8" y="16" width="2" height="2" fill="#232323"/>
<rect x="20" y="16" width="6" height="2" fill="#232323"/>
<rect x="8" y="18" width="2" height="2" fill="#232323"/>
<rect x="20" y="18" width="2" height="2" fill="#232323"/>
<rect x="24" y="18" width="2" height="2" fill="#232323"/>
<rect x="8" y="20" width="2" height="2" fill="#232323"/>
<rect x="20" y="20" width="2" height="2" fill="#232323"/>
<rect x="24" y="20" width="2" height="2" fill="#232323"/>
<rect x="8" y="22" width="2" height="2" fill="#232323"/>
<rect x="20" y="22" width="6" height="2" fill="#232323"/>
<rect x="8" y="24" width="2" height="2" fill="#232323"/>
<rect x="20" y="24" width="2" height="2" fill="#232323"/>
<rect x="8" y="26" width="14" height="2" fill="#232323"/>
</svg>
